<svg width="32" height="32" viewBox="0 0 32 32" fill="none" xmlns="http://www.w3.org/2000/svg">
<circle cx="16" cy="16.0002" r="15" stroke="#62929E" stroke-width="2"/>
<g clip-path="url(#clip0_313_3188)">
<path d="M20.9286 14.9288H17.2857C17.1674 14.9288 17.0714 14.8328 17.0714 14.7145V11.0716C17.0714 10.4799 16.5917 10.0002 16 10.0002C15.4083 10.0002 14.9286 10.4799 14.9286 11.0716V14.7145C14.9286 14.8328 14.8326 14.9288 14.7143 14.9288H11.0714C10.4797 14.9288 10 15.4085 10 16.0002C10 16.5919 10.4797 17.0716 11.0714 17.0716H14.7143C14.8326 17.0716 14.9286 17.1676 14.9286 17.2859V20.9288C14.9286 21.5204 15.4083 22.0002 16 22.0002C16.5917 22.0002 17.0714 21.5204 17.0714 20.9288V17.2859C17.0714 17.1676 17.1674 17.0716 17.2857 17.0716H20.9286C21.5203 17.0716 22 16.5919 22 16.0002C22 15.4085 21.5203 14.9288 20.9286 14.9288Z" fill="#62929E"/>
</g>
<defs>
<clipPath id="clip0_313_3188">
<rect width="12" height="12" fill="white" transform="translate(10 10.0002)"/>
</clipPath>
</defs>
</svg>
