<svg width="90" height="90" viewBox="0 0 90 90" fill="none" xmlns="http://www.w3.org/2000/svg">
<path d="M76.8341 13.1669C59.2759 -4.38766 30.7212 -4.38766 13.163 13.1669C-4.38767 30.7214 -4.38767 59.2834 13.163 76.838C21.9421 85.6134 33.4712 89.9991 45.0005 89.9991C56.5298 89.9991 68.055 85.6132 76.8341 76.838C94.3886 59.2836 94.3886 30.7214 76.8341 13.1669ZM63.5678 58.2668C65.0347 59.7336 65.0347 62.1048 63.5678 63.5717C62.8362 64.3033 61.8758 64.671 60.9153 64.671C59.9549 64.671 58.9943 64.3033 58.2627 63.5717L45.0003 50.3054L31.7416 63.5678C31.0063 64.2994 30.0457 64.6671 29.089 64.6671C28.1286 64.6671 27.1681 64.2994 26.4365 63.5678C24.9696 62.1009 24.9696 59.7261 26.4365 58.2629L39.6952 45.0005L26.4328 31.7381C24.9659 30.2712 24.9659 27.8963 26.4328 26.4332C27.896 24.9663 30.2708 24.9663 31.7377 26.4332L45.0001 39.6956L58.2625 26.4332C59.7294 24.9663 62.1006 24.9663 63.5675 26.4332C65.0344 27.8963 65.0344 30.2712 63.5675 31.7381L50.3051 45.0005L63.5678 58.2668Z" fill="black"/>
</svg>
