<svg width="36" height="36" viewBox="0 0 36 36" fill="none" xmlns="http://www.w3.org/2000/svg">
<path d="M12.9697 7.71975L8.46971 12.2197C8.25521 12.4342 8.19221 12.756 8.30696 13.0372C8.42321 13.3177 8.69696 13.5 8.99996 13.5H11.25V24.75C11.25 25.9927 12.2572 27 13.5 27C14.7427 27 15.75 25.9927 15.75 24.75V13.5H18C18.303 13.5 18.5767 13.3177 18.693 13.0372C18.8092 12.7552 18.744 12.4335 18.5302 12.2197L14.0302 7.71975C13.7377 7.4265 13.2622 7.4265 12.9697 7.71975V7.71975Z" fill="#62929E"/>
<path d="M20.2498 11.2499V22.4999H17.9998C17.6968 22.4999 17.4231 22.6821 17.3068 22.9626C17.1906 23.2431 17.2543 23.5649 17.4696 23.7801L21.9696 28.2801C22.2621 28.5726 22.7376 28.5726 23.0301 28.2801L27.5301 23.7801C27.7438 23.5664 27.8091 23.2446 27.6928 22.9626C27.5766 22.6821 27.3028 22.4999 26.9998 22.4999H24.7498V11.2499C24.7498 10.0071 23.7426 8.99988 22.4998 8.99988C21.2571 8.99988 20.2498 10.0071 20.2498 11.2499Z" fill="#62929E"/>
<rect x="1.5" y="1.5" width="33" height="33" rx="8.5" stroke="#62929E" stroke-width="3"/>
</svg>
