<svg width="90" height="90" viewBox="0 0 90 90" fill="none" xmlns="http://www.w3.org/2000/svg">
<path d="M44.999 0C20.1473 0 0.000488281 20.1483 0.000488281 44.9991C0.000488281 69.8499 20.1473 90 44.999 90C69.8507 90 89.9999 69.8511 89.9999 44.9991C89.9999 20.1471 69.8507 0 44.999 0ZM66.3908 32.3835L62.1167 36.6576L53.4164 27.9579L50.1158 31.2585L58.8161 39.9588L37.4765 61.2966L28.7768 52.5978L25.4762 55.8984L34.1759 64.5981L32.0495 66.7245L32.009 66.684C31.7732 67.0722 31.3898 67.3554 30.9344 67.4565L22.8215 69.2655C22.7 69.2928 22.5764 69.306 22.4543 69.306C22.0115 69.306 21.5813 69.1317 21.2624 68.8119C20.8532 68.4042 20.6828 67.8153 20.8088 67.251L22.6169 59.1405C22.7189 58.6854 23.0027 58.3011 23.3903 58.0659L23.3492 58.0248L57.6902 23.6823C58.1936 23.1798 59.0114 23.1798 59.5148 23.6838L66.3914 30.5589C66.8948 31.0623 66.8948 31.8801 66.3908 32.3835Z" fill="black"/>
</svg>
