<svg width="18" height="18" viewBox="0 0 18 18" fill="none" xmlns="http://www.w3.org/2000/svg">
<g clip-path="url(#clip0_181_657)">
<path d="M14.25 9.03471C13.8352 9.03471 13.5 9.37076 13.5 9.78467V15.7847C13.5 16.1979 13.164 16.5347 12.75 16.5347H2.25C1.83595 16.5347 1.50005 16.1979 1.50005 15.7847V5.28467C1.50005 4.87144 1.83595 4.53471 2.25 4.53471H8.25005C8.66478 4.53471 9 4.19867 9 3.78476C9 3.37071 8.66478 3.03467 8.25005 3.03467H2.25C1.00951 3.03467 0 4.04417 0 5.28467V15.7847C0 17.0252 1.00951 18.0347 2.25 18.0347H12.75C13.9905 18.0347 15 17.0252 15 15.7847V9.78467C15 9.36993 14.6647 9.03471 14.25 9.03471Z" fill="white"/>
<path d="M7.03185 8.35147C6.97939 8.40393 6.9441 8.47067 6.92913 8.54263L6.3989 11.1947C6.37418 11.3176 6.41318 11.4444 6.50162 11.5337C6.5729 11.6049 6.66889 11.6431 6.76722 11.6431C6.79111 11.6431 6.81597 11.6409 6.84069 11.6357L9.49196 11.1055C9.56544 11.0904 9.63218 11.0552 9.68395 11.0026L15.6179 5.06862L12.9667 2.41748L7.03185 8.35147Z" fill="white"/>
<path d="M17.4509 0.583614C16.7198 -0.147663 15.5302 -0.147663 14.7997 0.583614L13.7617 1.62155L16.413 4.27282L17.4509 3.23475C17.805 2.88154 18 2.4105 18 1.90953C18 1.40855 17.805 0.937512 17.4509 0.583614Z" fill="white"/>
</g>
<defs>
<clipPath id="clip0_181_657">
<rect width="18" height="18" fill="white"/>
</clipPath>
</defs>
</svg>
