<svg width="18" height="18" viewBox="0 0 18 18" fill="none" xmlns="http://www.w3.org/2000/svg">
<path d="M10.9828 7.01593C10.7696 6.80144 10.5332 6.61132 10.2779 6.44903C9.60194 6.01616 8.81605 5.78614 8.01333 5.78614C6.89919 5.78407 5.83031 6.22674 5.04387 7.01593L1.22855 10.8342C0.443441 11.6208 0.00216871 12.6866 0.00146571 13.798C-1.05846e-05 16.1172 1.87882 17.9984 4.19802 17.9999C5.31044 18.0038 6.37833 17.5632 7.1645 16.7761L10.3139 13.6267C10.3712 13.57 10.4031 13.4926 10.4027 13.412C10.4017 13.2464 10.2666 13.1129 10.101 13.1138H9.98099C9.32299 13.1161 8.67085 12.9898 8.06135 12.7419C7.94904 12.6957 7.81997 12.7217 7.73442 12.8079L5.46981 15.0754C4.7666 15.7787 3.62648 15.7787 2.92327 15.0754C2.22006 14.3722 2.22006 13.2321 2.92327 12.5289L6.75359 8.70161C7.45624 7.99985 8.5945 7.99985 9.29715 8.70161C9.77069 9.14728 10.5093 9.14728 10.9828 8.70161C11.1866 8.49771 11.3101 8.22727 11.3308 7.93974C11.3527 7.59615 11.226 7.25966 10.9828 7.01593Z" fill="#62929E"/>
<path d="M16.7686 1.22999C15.1286 -0.409998 12.4696 -0.409998 10.8296 1.22999L7.6832 4.37342C7.5968 4.46024 7.57188 4.59082 7.62021 4.70337C7.66798 4.81624 7.77962 4.88868 7.90215 4.88633H8.01312C8.67035 4.88513 9.32143 5.01248 9.92977 5.26127C10.0421 5.30749 10.1711 5.28141 10.2567 5.19529L12.5153 2.93969C13.2185 2.23648 14.3586 2.23648 15.0618 2.93969C15.765 3.6429 15.765 4.78302 15.0618 5.48623L12.2483 8.29671L12.2243 8.32371L11.2405 9.30155C10.5379 10.0033 9.39961 10.0033 8.69696 9.30155C8.22342 8.85588 7.48478 8.85588 7.01128 9.30155C6.80625 9.507 6.68263 9.7798 6.66333 10.0694C6.6414 10.413 6.76811 10.7495 7.01128 10.9932C7.35845 11.3419 7.76465 11.6262 8.21105 11.8331C8.27404 11.8631 8.33703 11.8871 8.40001 11.9141C8.463 11.9411 8.52898 11.962 8.59197 11.9861C8.65496 12.0101 8.72093 12.031 8.78392 12.049L8.9609 12.097C9.08087 12.127 9.20087 12.151 9.32382 12.172C9.47195 12.194 9.62112 12.208 9.77076 12.214H9.98071H9.9987L10.1787 12.193C10.2446 12.19 10.3136 12.175 10.3916 12.175H10.4936L10.7006 12.145L10.7966 12.127L10.9705 12.091H11.0035C11.7403 11.906 12.4131 11.5245 12.9502 10.9872L16.7685 7.16893C18.4086 5.52894 18.4086 2.86998 16.7686 1.22999Z" fill="#62929E"/>
</svg>
