<svg width="32" height="32" viewBox="0 0 32 32" fill="none" xmlns="http://www.w3.org/2000/svg">
<path d="M0 1C0 0.447715 0.447715 0 1 0H6.11119C6.33056 0 6.54384 0.0721344 6.71818 0.205289L25.206 14.326C25.8641 14.8287 26.813 14.3594 26.813 13.5313V1C26.813 0.447715 27.2608 0 27.813 0H31C31.5523 0 32 0.447715 32 1V18.2C32 18.7523 31.5523 19.2 31 19.2H26.214C25.9972 19.2 25.7862 19.1295 25.613 18.9992L6.81543 4.86359C6.15635 4.36797 5.21441 4.83819 5.21441 5.66283V18.2C5.21441 18.7523 4.76669 19.2 4.21441 19.2H1C0.447717 19.2 0 18.7523 0 18.2V1Z" fill="black"/>
<path d="M0 31C0 31.5523 0.447715 32 1 32H4.21441C4.76669 32 5.21441 31.5523 5.21441 31V29.8652L6.4494 29.3235V30.4597C6.4494 31.1837 7.195 31.6678 7.85638 31.3731L25.8799 23.3429L26.813 22.9272V31C26.813 31.5523 27.2608 32 27.813 32H31C31.5523 32 32 31.5523 32 31V21.8C32 21.2477 31.5523 20.8 31 20.8H27.813C27.2608 20.8 26.813 21.2477 26.813 21.8V22.9272L25.8799 23.3429V22.3306C25.8799 21.6091 25.139 21.125 24.4782 21.4149L6.4494 29.3235L5.21441 29.8652V21.8C5.21441 21.2477 4.76669 20.8 4.21441 20.8H1C0.447717 20.8 0 21.2477 0 21.8V31Z" fill="#62929E"/>
</svg>
