<svg width="32" height="32" viewBox="0 0 32 32" fill="none" xmlns="http://www.w3.org/2000/svg">
<rect x="1" y="1" width="30" height="30" rx="9" fill="black"/>
<path d="M8.09424 9H23.906C24.5094 9 25 8.55157 25 8.00012C25 7.44867 24.5094 7 23.906 7H8.09424C7.49089 7 7 7.44867 7 8.00012C7 8.55157 7.49089 9 8.09424 9Z" fill="white"/>
<path d="M23.906 15H8.09424C7.49089 15 7 15.4487 7 16.0001C7 16.5516 7.49089 17 8.09424 17H23.906C24.5094 17 25 16.5516 25 16.0001C25 15.4487 24.5094 15 23.906 15Z" fill="white"/>
<path d="M23.906 23H8.09424C7.49089 23 7 23.4489 7 24.0002C7 24.5516 7.49089 25 8.09424 25H23.906C24.5094 25 25 24.5516 25 24.0002C25 23.4489 24.5094 23 23.906 23Z" fill="white"/>
<rect x="1" y="1" width="30" height="30" rx="9" stroke="black" stroke-width="2"/>
</svg>
