<svg width="18" height="18" viewBox="0 0 18 18" fill="none" xmlns="http://www.w3.org/2000/svg">
<path d="M14.2734 11.6719C13.2314 11.6719 12.3131 12.1845 11.7363 12.964L6.74965 10.4106C6.83244 10.1284 6.89062 9.83595 6.89062 9.52734C6.89062 9.10877 6.80481 8.71084 6.65655 8.34483L11.8753 5.20439C12.4561 5.886 13.3098 6.32812 14.2734 6.32812C16.0182 6.32812 17.4375 4.90883 17.4375 3.16406C17.4375 1.41929 16.0182 0 14.2734 0C12.5287 0 11.1094 1.41929 11.1094 3.16406C11.1094 3.56614 11.1922 3.94755 11.3295 4.30165L6.09521 7.4513C5.51493 6.78994 4.67357 6.36328 3.72656 6.36328C1.98179 6.36328 0.5625 7.78257 0.5625 9.52734C0.5625 11.2721 1.98179 12.6914 3.72656 12.6914C4.78582 12.6914 5.71961 12.1637 6.2942 11.3623L11.2645 13.9074C11.1729 14.2029 11.1094 14.5107 11.1094 14.8359C11.1094 16.5807 12.5287 18 14.2734 18C16.0182 18 17.4375 16.5807 17.4375 14.8359C17.4375 13.0912 16.0182 11.6719 14.2734 11.6719Z" fill="white"/>
</svg>
