<svg width="40" height="40" viewBox="0 0 40 40" fill="none" xmlns="http://www.w3.org/2000/svg">
<circle cx="20" cy="20.0002" r="19" stroke="#62929E" stroke-width="2"/>
<g clip-path="url(#clip0_534_2607)">
<path d="M26.1607 18.6609H21.6071C21.4592 18.6609 21.3393 18.5409 21.3393 18.393V13.8395C21.3393 13.0998 20.7396 12.5002 20 12.5002C19.2604 12.5002 18.6607 13.0998 18.6607 13.8395V18.393C18.6607 18.5409 18.5408 18.6609 18.3929 18.6609H13.8393C13.0997 18.6609 12.5 19.2606 12.5 20.0002C12.5 20.7398 13.0997 21.3395 13.8393 21.3395H18.3929C18.5408 21.3395 18.6607 21.4594 18.6607 21.6073V26.1609C18.6607 26.9005 19.2604 27.5002 20 27.5002C20.7396 27.5002 21.3393 26.9005 21.3393 26.1609V21.6073C21.3393 21.4594 21.4592 21.3395 21.6071 21.3395H26.1607C26.9003 21.3395 27.5 20.7398 27.5 20.0002C27.5 19.2606 26.9003 18.6609 26.1607 18.6609Z" fill="#62929E"/>
</g>
<defs>
<clipPath id="clip0_534_2607">
<rect width="15" height="15" fill="white" transform="translate(12.5 12.5002)"/>
</clipPath>
</defs>
</svg>
