<svg width="28" height="24" viewBox="0 0 28 24" fill="none" xmlns="http://www.w3.org/2000/svg">
<path d="M28 3.20521C26.2387 3.29023 26.2771 3.28329 26.078 3.30074L27.1212 0.180968C27.1212 0.180968 23.8651 1.43537 23.0397 1.65976C20.8718 -0.380792 17.6495 -0.470951 15.3458 1.01186C13.4593 2.22644 12.4467 4.31218 12.7845 6.75005C9.11295 6.21648 6.01947 4.39384 3.57712 1.32127L2.80466 0.349653L2.22745 1.45975C1.49792 2.86247 1.25568 4.46632 1.54514 5.97576C1.66391 6.59502 1.86578 7.18564 2.14542 7.73867L1.48276 7.46976L1.40414 8.6293C1.32446 9.80719 1.69894 11.1822 2.40604 12.307C2.60513 12.6238 2.86148 12.9717 3.1864 13.3149L2.84396 13.2599L3.26181 14.5885C3.81104 16.3342 4.95178 17.6848 6.43219 18.4356C4.9537 19.0927 3.75934 19.5119 1.79614 20.1882L0 20.8066L1.659 21.7565C2.29153 22.1187 4.52667 23.3284 6.73511 23.6912C11.6442 24.4975 17.1712 23.8409 20.8921 20.3314C24.0262 17.3754 25.0546 13.1706 24.8409 8.79485C24.8087 8.13242 24.9819 7.50019 25.3289 7.01494C26.0238 6.04332 27.9957 3.2117 28 3.20521ZM24.017 5.98583C23.4409 6.79144 23.1523 7.82033 23.2039 8.88255C23.4195 13.2963 22.2728 16.7192 19.7954 19.0558C16.9014 21.7854 12.2336 22.8568 6.98911 21.9952C6.03934 21.8393 5.05774 21.4901 4.24533 21.1413C5.8913 20.5482 7.16235 20.0195 9.21506 19.0021L12.0806 17.5817L8.91684 17.3696C7.4014 17.268 6.13953 16.4989 5.36386 15.2501C5.77573 15.225 6.17285 15.1552 6.56827 15.0398L9.58569 14.1597L6.54306 13.3793C5.06458 13.0001 4.22183 12.0737 3.77515 11.3632C3.48184 10.8963 3.29022 10.4179 3.17529 9.97699C3.48035 10.0627 3.83603 10.1237 4.40961 10.1833L7.2258 10.475L4.99451 8.65212C3.38678 7.33888 2.74249 5.3659 3.21481 3.4692C8.23239 8.91947 14.1237 8.50983 14.7167 8.65391C14.5862 7.32613 14.5828 7.323 14.5486 7.1966C13.7892 4.38511 15.4535 2.95756 16.2042 2.47432C17.7722 1.46512 20.2611 1.31299 21.985 2.97568C22.3574 3.33452 22.8609 3.47569 23.3321 3.35309C23.7551 3.24302 24.1022 3.12646 24.4421 2.99961L23.7346 5.11556L24.6378 5.11623C24.4673 5.35561 24.2629 5.64219 24.017 5.98583Z" fill="#62929E"/>
</svg>
