<svg width="18" height="18" viewBox="0 0 18 18" fill="none" xmlns="http://www.w3.org/2000/svg">
<path d="M10.9823 7.01593C10.7691 6.80144 10.5327 6.61132 10.2775 6.44903C9.60145 6.01616 8.81557 5.78614 8.01285 5.78614C6.8987 5.78407 5.82982 6.22674 5.04338 7.01593L1.22806 10.8342C0.442953 11.6208 0.00168043 12.6866 0.000977432 13.798C-0.000498866 16.1172 1.87834 17.9984 4.19753 17.9999C5.30996 18.0038 6.37785 17.5632 7.16401 16.7761L10.3134 13.6267C10.3707 13.57 10.4026 13.4926 10.4022 13.412C10.4012 13.2464 10.2661 13.1129 10.1005 13.1138H9.9805C9.3225 13.1161 8.67036 12.9898 8.06086 12.7419C7.94856 12.6957 7.81949 12.7217 7.73393 12.8079L5.46933 15.0754C4.76612 15.7787 3.62599 15.7787 2.92278 15.0754C2.21957 14.3722 2.21957 13.2321 2.92278 12.5289L6.75311 8.70161C7.45575 7.99985 8.59402 7.99985 9.29666 8.70161C9.7702 9.14728 10.5088 9.14728 10.9823 8.70161C11.1861 8.49771 11.3096 8.22727 11.3303 7.93974C11.3522 7.59615 11.2255 7.25966 10.9823 7.01593Z" fill="white"/>
<path d="M16.7688 1.22999C15.1288 -0.409998 12.4699 -0.409998 10.8299 1.22999L7.68345 4.37342C7.59705 4.46024 7.57213 4.59082 7.62046 4.70337C7.66823 4.81624 7.77986 4.88868 7.9024 4.88633H8.01336C8.6706 4.88513 9.32168 5.01248 9.93002 5.26127C10.0423 5.30749 10.1714 5.28141 10.2569 5.19529L12.5155 2.93969C13.2187 2.23648 14.3589 2.23648 15.0621 2.93969C15.7653 3.6429 15.7653 4.78302 15.0621 5.48623L12.2486 8.29671L12.2246 8.32371L11.2408 9.30155C10.5381 10.0033 9.39985 10.0033 8.69721 9.30155C8.22367 8.85588 7.48503 8.85588 7.01152 9.30155C6.80649 9.507 6.68287 9.7798 6.66357 10.0694C6.64164 10.413 6.76836 10.7495 7.01152 10.9932C7.3587 11.3419 7.76489 11.6262 8.21129 11.8331C8.27428 11.8631 8.33727 11.8871 8.40026 11.9141C8.46325 11.9411 8.52922 11.962 8.59221 11.9861C8.6552 12.0101 8.72118 12.031 8.78417 12.049L8.96115 12.097C9.08111 12.127 9.20111 12.151 9.32407 12.172C9.47219 12.194 9.62137 12.208 9.771 12.214H9.98095H9.99895L10.1789 12.193C10.2449 12.19 10.3139 12.175 10.3919 12.175H10.4939L10.7008 12.145L10.7968 12.127L10.9708 12.091H11.0038C11.7406 11.906 12.4133 11.5245 12.9504 10.9872L16.7687 7.16893C18.4088 5.52894 18.4088 2.86998 16.7688 1.22999Z" fill="white"/>
</svg>
