<svg width="19" height="14" viewBox="0 0 19 14" fill="none" xmlns="http://www.w3.org/2000/svg">
<path d="M12.0624 0.0041594H12.0252L11.7748 0.281442C14.3446 1.11329 15.588 2.41236 15.588 2.41236C13.9318 1.48624 12.4393 1.02317 10.9467 0.836007C9.86818 0.648842 8.78967 0.747277 7.87851 0.836007H7.63058C7.04793 0.836007 5.80826 1.11329 4.14711 1.85502C3.56818 2.13646 3.23595 2.32086 3.23595 2.32086C3.23595 2.32086 4.4781 0.93167 7.21529 0.189939L7.04793 0.00277354C7.04793 0.00277354 4.97521 -0.085958 2.7376 1.76352C2.7376 1.76352 0.5 6.1224 0.5 11.4961C0.5 11.4961 1.73967 13.9085 5.14008 14C5.14008 14 5.63595 13.261 6.13802 12.6108C4.22893 11.962 3.48512 10.6643 3.48512 10.6643C3.48512 10.6643 3.65124 10.7558 3.90041 10.9416H3.97479C4.01198 10.9416 4.02934 10.9624 4.04917 10.9832V10.9915C4.06901 11.0137 4.08636 11.0331 4.12355 11.0331C4.53264 11.2216 4.94174 11.4074 5.27645 11.5876C5.99227 11.9303 6.741 12.1797 7.50785 12.3308C8.66074 12.5179 9.98223 12.608 11.4872 12.3308C12.231 12.1436 12.9748 11.9606 13.7186 11.589C14.2021 11.3117 14.7971 11.0345 15.4504 10.5672C15.4504 10.5672 14.7066 11.8649 12.7169 12.5138C13.126 13.1598 13.7025 13.9002 13.7025 13.9002C17.1041 13.817 18.4256 11.4046 18.5 11.5072C18.5 6.14181 16.25 1.77461 16.25 1.77461C14.2231 0.0915034 12.3264 0.0277281 11.9917 0.0277281L12.0612 0L12.0624 0.0041594ZM12.2707 6.1224C13.1421 6.1224 13.845 6.95425 13.845 7.97326C13.845 8.99921 13.1384 9.83106 12.2707 9.83106C11.4029 9.83106 10.6963 8.99921 10.6963 7.98158C10.6988 6.95564 11.4066 6.12656 12.2707 6.12656V6.1224ZM6.63884 6.1224C7.50661 6.1224 8.20826 6.95425 8.20826 7.97326C8.20826 8.99921 7.50165 9.83106 6.63388 9.83106C5.76611 9.83106 5.0595 8.99921 5.0595 7.98158C5.0595 6.95564 5.76611 6.12656 6.63388 6.12656L6.63884 6.1224Z" fill="white"/>
</svg>
