<svg width="19" height="18" viewBox="0 0 19 18" fill="none" xmlns="http://www.w3.org/2000/svg">
<path d="M5.57304 17.993C8.55846 18.1055 11.4574 16.8543 13.6106 14.524C15.7638 12.1937 16.9882 8.98241 17.0055 5.6204C17.6827 4.67717 18.1855 3.5911 18.4845 2.42602C18.5301 2.23798 18.4733 2.03734 18.3396 1.91353C18.2059 1.78971 18.02 1.76577 17.8649 1.85238C17.1384 2.24597 16.2698 2.07398 15.7063 1.42496C14.9975 0.551374 14.0047 0.0380569 12.9541 0.00203168C11.9035 -0.0339935 10.8847 0.410344 10.13 1.23374C9.08967 2.36775 8.65353 4.03251 8.98078 5.6204C5.633 5.84536 3.33452 4.05695 1.49574 1.60492C1.38287 1.46105 1.20508 1.40592 1.04267 1.46441C0.88025 1.52291 0.763934 1.68397 0.746238 1.87487C0.0288304 6.35395 1.86236 10.8627 5.34319 13.179C4.20358 14.65 2.60322 15.5687 0.876152 15.7435C0.686458 15.7789 0.537753 15.9461 0.506141 16.1596C0.47453 16.3731 0.567007 16.5855 0.736245 16.6883C2.23877 17.5334 3.89338 17.9797 5.57304 17.993Z" fill="white"/>
</svg>
